<svg width="48" height="48" viewBox="0 0 48 48" fill="none" xmlns="http://www.w3.org/2000/svg">
<path d="M24.78 12.8252H12.78C12.3822 12.8252 12.0007 12.9832 11.7194 13.2645C11.4381 13.5458 11.28 13.9274 11.28 14.3252C11.28 14.723 11.4381 15.1046 11.7194 15.3859C12.0007 15.6672 12.3822 15.8252 12.78 15.8252H24.78C25.1779 15.8252 25.5594 15.6672 25.8407 15.3859C26.122 15.1046 26.28 14.723 26.28 14.3252C26.28 13.9274 26.122 13.5458 25.8407 13.2645C25.5594 12.9832 25.1779 12.8252 24.78 12.8252Z" fill="#33A78C"/>
<path d="M24.7795 20.8506H12.7795C12.3817 20.8506 12.0002 21.0086 11.7189 21.2899C11.4376 21.5712 11.2795 21.9528 11.2795 22.3506C11.2795 22.7484 11.4376 23.1299 11.7189 23.4112C12.0002 23.6926 12.3817 23.8506 12.7795 23.8506H24.7795C25.1774 23.8506 25.5589 23.6926 25.8402 23.4112C26.1215 23.1299 26.2795 22.7484 26.2795 22.3506C26.2795 21.9528 26.1215 21.5712 25.8402 21.2899C25.5589 21.0086 25.1774 20.8506 24.7795 20.8506Z" fill="#33A78C"/>
<path d="M24.78 29.0547H12.78C12.3822 29.0547 12.0007 29.2127 11.7194 29.494C11.4381 29.7753 11.28 30.1569 11.28 30.5547C11.28 30.9525 11.4381 31.334 11.7194 31.6153C12.0007 31.8967 12.3822 32.0547 12.78 32.0547H24.78C25.1779 32.0547 25.5594 31.8967 25.8407 31.6153C26.122 31.334 26.28 30.9525 26.28 30.5547C26.28 30.1569 26.122 29.7753 25.8407 29.494C25.5594 29.2127 25.1779 29.0547 24.78 29.0547Z" fill="#33A78C"/>
<path d="M38.8049 1.5H9.19494C8.42544 1.50196 7.66389 1.65572 6.9539 1.95247C6.24392 2.24922 5.59946 2.68312 5.05743 3.22933C4.5154 3.77553 4.08646 4.42331 3.79518 5.13555C3.5039 5.84779 3.35599 6.61051 3.35994 7.38V43.965C3.35896 44.3404 3.45792 44.7093 3.64667 45.0339C3.83542 45.3584 4.10715 45.6268 4.43395 45.8116C4.76075 45.9964 5.13085 46.0909 5.50623 46.0853C5.88161 46.0797 6.24875 45.9744 6.56994 45.78L12.0899 42.465C12.1732 42.4131 12.2693 42.3857 12.3674 42.3857C12.4655 42.3857 12.5617 42.4131 12.6449 42.465L18.7799 46.14C19.1026 46.3457 19.4773 46.4549 19.8599 46.455C20.245 46.453 20.6227 46.3495 20.9549 46.155L27.1199 42.465C27.2032 42.4131 27.2993 42.3857 27.3974 42.3857C27.4955 42.3857 27.5917 42.4131 27.6749 42.465L33.1649 45.78C33.4872 45.9715 33.8551 46.0725 34.2299 46.0725C34.6048 46.0725 34.9727 45.9715 35.2949 45.78C35.6176 45.5955 35.886 45.3291 36.0729 45.0079C36.2599 44.6866 36.3589 44.3217 36.3599 43.95V18.66H41.0699C42.0156 18.656 42.9213 18.2787 43.59 17.61C44.2586 16.9414 44.636 16.0356 44.6399 15.09V7.38C44.6439 6.61051 44.496 5.84779 44.2047 5.13555C43.9134 4.42331 43.4845 3.77553 42.9425 3.22933C42.4004 2.68312 41.756 2.24922 41.046 1.95247C40.336 1.65572 39.5744 1.50196 38.8049 1.5ZM33.3599 42.39L29.2199 39.9C28.6684 39.5726 28.0389 39.3997 27.3974 39.3997C26.756 39.3997 26.1265 39.5726 25.5749 39.9L19.8749 43.32L14.1899 39.885C13.6318 39.5512 12.9932 39.3761 12.3429 39.3788C11.6925 39.3814 11.0553 39.5616 10.4999 39.9L6.35994 42.405V7.38C6.35397 7.00393 6.42289 6.63044 6.56269 6.28127C6.70248 5.9321 6.91036 5.61424 7.17421 5.3462C7.43807 5.07816 7.75261 4.8653 8.09954 4.72002C8.44646 4.57475 8.81883 4.49995 9.19494 4.5H33.9749C33.5788 5.25465 33.368 6.09274 33.3599 6.945V42.345V42.39ZM41.6399 15.09C41.6399 15.2412 41.5799 15.3862 41.473 15.4931C41.3661 15.5999 41.2211 15.66 41.0699 15.66H36.3599V6.99C36.354 6.66515 36.4128 6.34237 36.533 6.04051C36.6532 5.73866 36.8323 5.46379 37.06 5.23196C37.2876 5.00013 37.5592 4.816 37.8588 4.69032C38.1584 4.56465 38.48 4.49994 38.8049 4.5C39.5568 4.5 40.2779 4.79869 40.8096 5.33035C41.3413 5.86202 41.6399 6.58311 41.6399 7.335V15.09Z" fill="#33A78C"/>
</svg>
