<svg width="20" height="18" viewBox="0 0 20 18" fill="none" xmlns="http://www.w3.org/2000/svg">
<path fill-rule="evenodd" clip-rule="evenodd" d="M2.2934 5.46159H17.7092C17.6987 4.07691 17.4992 3.43779 17.154 3.09706C16.7963 2.74405 16.1149 2.54492 14.6263 2.54492H5.36797C3.88381 2.54492 3.20471 2.74398 2.84803 3.09665C2.50335 3.43745 2.3039 4.07695 2.2934 5.46159ZM18.9596 5.57826C18.9596 4.119 18.7897 2.95513 18.032 2.20737C17.2772 1.46246 16.1043 1.29492 14.6263 1.29492H5.36797C3.8938 1.29492 2.7229 1.46253 1.96916 2.20778C1.21296 2.95546 1.04297 4.11894 1.04297 5.57826V12.4283C1.04297 13.8873 1.21285 15.0513 1.96958 15.7981C2.72384 16.5425 3.89504 16.7073 5.36859 16.7033H14.6346C16.1088 16.7033 17.2797 16.5357 18.0334 15.7904C18.7896 15.0427 18.9596 13.8793 18.9596 12.4199V5.57826ZM17.7096 6.71159V12.4199C17.7096 13.8856 17.5088 14.5513 17.1546 14.9015C16.7979 15.2542 16.1188 15.4533 14.6346 15.4533L5.36797 15.4533L5.36621 15.4533C3.88196 15.4575 3.20357 15.2597 2.8476 14.9084C2.49392 14.5594 2.29297 13.8943 2.29297 12.4283V6.71159H17.7096ZM4.3763 12.7533C4.3763 12.4081 4.65612 12.1283 5.0013 12.1283H6.66797C7.01315 12.1283 7.29297 12.4081 7.29297 12.7533C7.29297 13.0984 7.01315 13.3783 6.66797 13.3783H5.0013C4.65612 13.3783 4.3763 13.0984 4.3763 12.7533ZM8.1263 12.7533C8.1263 12.4081 8.40612 12.1283 8.7513 12.1283H12.0846C12.4298 12.1283 12.7096 12.4081 12.7096 12.7533C12.7096 13.0984 12.4298 13.3783 12.0846 13.3783H8.7513C8.40612 13.3783 8.1263 13.0984 8.1263 12.7533Z" fill="#2E3646" stroke="#2E3646" stroke-width="0.6" stroke-linecap="round" stroke-linejoin="round"/>
</svg>
