<svg width="17" height="18" viewBox="0 0 17 18" fill="none" xmlns="http://www.w3.org/2000/svg">
<path fill-rule="evenodd" clip-rule="evenodd" d="M8.20448 17.3326C7.07531 17.3326 5.97448 17.3201 4.88531 17.2976C3.49198 17.2701 2.52781 16.3668 2.37031 14.9401C2.10781 12.5735 1.65865 6.99514 1.65448 6.93931C1.62615 6.59514 1.88281 6.29348 2.22698 6.26598C2.56615 6.25681 2.87281 6.49514 2.90031 6.83848C2.90448 6.89514 3.35281 12.4543 3.61281 14.8026C3.70198 15.6135 4.13948 16.0318 4.91115 16.0476C6.99448 16.0918 9.12032 16.0943 11.412 16.0526C12.232 16.0368 12.6753 15.6268 12.767 14.7968C13.0253 12.4685 13.4753 6.89514 13.4803 6.83848C13.5078 6.49514 13.812 6.25514 14.1528 6.26598C14.497 6.29431 14.7536 6.59514 14.7261 6.93931C14.7211 6.99598 14.2695 12.5885 14.0095 14.9343C13.8478 16.3901 12.8861 17.276 11.4345 17.3026C10.3236 17.3218 9.25198 17.3326 8.20448 17.3326Z" fill="#F52727"/>
<path d="M8.20448 17.3326C7.07531 17.3326 5.97448 17.3201 4.88531 17.2976C3.49198 17.2701 2.52781 16.3668 2.37031 14.9401C2.10781 12.5735 1.65865 6.99514 1.65448 6.93931C1.62615 6.59514 1.88281 6.29348 2.22698 6.26598C2.56615 6.25681 2.87281 6.49514 2.90031 6.83848C2.90448 6.89514 3.35281 12.4543 3.61281 14.8026C3.70198 15.6135 4.13948 16.0318 4.91115 16.0476C6.99448 16.0918 9.12031 16.0943 11.412 16.0526C12.232 16.0368 12.6753 15.6268 12.767 14.7968C13.0253 12.4685 13.4753 6.89514 13.4803 6.83848C13.5078 6.49514 13.812 6.25514 14.1528 6.26598C14.497 6.29431 14.7536 6.59514 14.7261 6.93931C14.7211 6.99598 14.2695 12.5885 14.0095 14.9343C13.8478 16.3901 12.8861 17.276 11.4345 17.3026C10.3236 17.3218 9.25198 17.3326 8.20448 17.3326" stroke="#F52727" stroke-width="0.6"/>
<path fill-rule="evenodd" clip-rule="evenodd" d="M15.2567 4.82358H1.125C0.78 4.82358 0.5 4.54358 0.5 4.19858C0.5 3.85358 0.78 3.57358 1.125 3.57358H15.2567C15.6017 3.57358 15.8817 3.85358 15.8817 4.19858C15.8817 4.54358 15.6017 4.82358 15.2567 4.82358Z" fill="#F52727"/>
<path d="M15.2567 4.82358H1.125C0.78 4.82358 0.5 4.54358 0.5 4.19858C0.5 3.85358 0.78 3.57358 1.125 3.57358H15.2567C15.6017 3.57358 15.8817 3.85358 15.8817 4.19858C15.8817 4.54358 15.6017 4.82358 15.2567 4.82358" stroke="#F52727" stroke-width="0.6"/>
<path fill-rule="evenodd" clip-rule="evenodd" d="M12.5335 4.82417C11.5852 4.82417 10.7618 4.14834 10.5752 3.21834L10.3727 2.20501C10.3302 2.05084 10.1543 1.91667 9.95432 1.91667H6.42682C6.22682 1.91667 6.05099 2.05084 6.00016 2.24334L5.80599 3.21834C5.62016 4.14834 4.79599 4.82417 3.84766 4.82417C3.50266 4.82417 3.22266 4.54417 3.22266 4.19917C3.22266 3.85417 3.50266 3.57417 3.84766 3.57417C4.20266 3.57417 4.51099 3.32084 4.58099 2.97251L4.78349 1.95917C4.98932 1.18251 5.66182 0.666672 6.42682 0.666672H9.95432C10.7193 0.666672 11.3918 1.18251 11.5893 1.92167L11.801 2.97251C11.8702 3.32084 12.1785 3.57417 12.5335 3.57417C12.8785 3.57417 13.1585 3.85417 13.1585 4.19917C13.1585 4.54417 12.8785 4.82417 12.5335 4.82417Z" fill="#F52727"/>
<path d="M12.5335 4.82417C11.5852 4.82417 10.7618 4.14834 10.5752 3.21834L10.3727 2.20501C10.3302 2.05084 10.1543 1.91667 9.95432 1.91667H6.42682C6.22682 1.91667 6.05099 2.05084 6.00016 2.24334L5.80599 3.21834C5.62016 4.14834 4.79599 4.82417 3.84766 4.82417C3.50266 4.82417 3.22266 4.54417 3.22266 4.19917C3.22266 3.85417 3.50266 3.57417 3.84766 3.57417C4.20266 3.57417 4.51099 3.32084 4.58099 2.9725L4.78349 1.95917C4.98932 1.18251 5.66182 0.666672 6.42682 0.666672H9.95432C10.7193 0.666672 11.3918 1.18251 11.5893 1.92167L11.801 2.9725C11.8702 3.32084 12.1785 3.57417 12.5335 3.57417C12.8785 3.57417 13.1585 3.85417 13.1585 4.19917C13.1585 4.54417 12.8785 4.82417 12.5335 4.82417" stroke="#F52727" stroke-width="0.6"/>
</svg>
