<svg width="32" height="32" viewBox="0 0 32 32" fill="none" xmlns="http://www.w3.org/2000/svg">
<path fill-rule="evenodd" clip-rule="evenodd" d="M32 16C32 7.16345 24.8366 0 16 0C7.16345 0 0 7.16345 0 16C0 24.8366 7.16345 32 16 32C24.8366 32 32 24.8366 32 16ZM23.8631 11.3177C23.8631 12.6092 22.8177 13.6564 21.527 13.6594L21.5214 13.6595C20.2281 13.6595 19.1797 12.611 19.1797 11.3177C19.1797 10.0263 20.2251 8.97902 21.5159 8.97602L21.5214 8.976C22.8147 8.976 23.8631 10.0244 23.8631 11.3177ZM12.8203 11.3177C12.8203 12.6092 11.7749 13.6565 10.4841 13.6594L10.4786 13.6595C9.18528 13.6595 8.13685 12.611 8.13685 11.3177C8.13685 10.0263 9.18229 8.97899 10.473 8.97602L10.4786 8.976C11.7719 8.976 12.8203 10.0244 12.8203 11.3177ZM9.57703 17.7382C9.37202 16.9763 8.58818 16.5249 7.82631 16.7299C7.06443 16.9349 6.61303 17.7188 6.81806 18.4807C7.90825 22.5319 11.6059 25.5157 16.004 25.5157C20.4021 25.5157 24.0997 22.5319 25.1899 18.4807C25.395 17.7188 24.9435 16.9349 24.1817 16.7299C23.4199 16.5249 22.636 16.9763 22.4309 17.7382C21.668 20.5734 19.0776 22.6584 16.004 22.6584C12.9303 22.6584 10.34 20.5734 9.57703 17.7382Z" fill="#33A78C"/>
</svg>
