<svg width="48" height="48" viewBox="0 0 48 48" fill="none" xmlns="http://www.w3.org/2000/svg">
<mask id="mask0_564_38929" style="mask-type:luminance" maskUnits="userSpaceOnUse" x="0" y="0" width="48" height="48">
<path d="M0 3.8147e-06H48V48H0V3.8147e-06Z" fill="white"/>
</mask>
<g mask="url(#mask0_564_38929)">
<path d="M18.646 35.246C19.93 41.716 25.6372 46.5938 32.4844 46.5938C35.3156 46.5938 37.9515 45.7593 40.1609 44.3238L45.9155 45.9155L44.3238 40.1608C45.7593 37.9514 46.5938 35.3155 46.5938 32.4844C46.5938 25.6372 41.7161 19.9299 35.246 18.6459" stroke="#33A78C" stroke-width="3" stroke-miterlimit="10"/>
<path d="M18.3281 1.40625C8.98247 1.40625 1.40625 8.98247 1.40625 18.3281C1.40625 21.6786 2.38022 24.8015 4.06003 27.4295L2.08453 34.5717L9.22678 32.5962C11.8549 34.2761 14.9777 35.25 18.3281 35.25C27.6738 35.25 35.25 27.6738 35.25 18.3281C35.25 8.98247 27.6738 1.40625 18.3281 1.40625Z" stroke="#33A78C" stroke-width="3" stroke-miterlimit="10"/>
<path d="M19.7344 28.2188H16.9219V25.4062H19.7344V28.2188Z" fill="#33A78C"/>
<path d="M14.1094 14.0625C14.1094 11.7325 15.9982 9.84375 18.3281 9.84375C20.6581 9.84375 22.5469 11.7325 22.5469 14.0625C22.5469 15.2953 22.0178 16.4045 21.1747 17.1758L18.3281 19.7813V22.5938" stroke="#33A78C" stroke-width="3" stroke-miterlimit="10"/>
</g>
</svg>
