<svg width="48" height="48" viewBox="0 0 48 48" fill="none" xmlns="http://www.w3.org/2000/svg">
<g clip-path="url(#clip0_564_38918)">
<path d="M29.6861 27.5805C30.9751 25.9853 30.8788 23.6346 29.3968 22.1522C27.8114 20.5668 25.2322 20.5665 23.6469 22.1514L22.2879 23.5104C21.7891 24.0096 20.9768 24.0092 20.4773 23.5101C20.2353 23.268 20.1023 22.9465 20.102 22.6044C20.102 22.2628 20.2353 21.9412 20.4766 21.6995L22.776 19.4001C23.3202 18.8563 23.3202 17.9744 22.776 17.4306C22.2322 16.8864 21.3504 16.8864 20.8065 17.4306L20.1715 18.0656L19.5655 17.4595C19.0216 16.9157 18.1398 16.9157 17.5956 17.4595C17.0518 18.0037 17.0518 18.8852 17.5956 19.4294L18.2182 20.0516C17.6341 20.7726 17.3166 21.6644 17.3166 22.6052C17.3166 23.691 17.7399 24.712 18.5078 25.4799C19.3003 26.2728 20.3418 26.669 21.383 26.669C22.4241 26.669 23.4652 26.2728 24.2574 25.4807L25.6164 24.1216C26.1155 23.6225 26.9278 23.6229 27.4273 24.122C27.9264 24.6215 27.9268 25.4338 27.4276 25.9326L24.7609 28.5993C24.2167 29.1431 24.2167 30.025 24.7609 30.5688C25.0326 30.8409 25.3889 30.9771 25.7456 30.9767C26.102 30.9767 26.4586 30.8409 26.7304 30.5688L27.7331 29.5665L28.3391 30.1722C28.6112 30.4443 28.9676 30.5801 29.3239 30.5801C29.6806 30.5801 30.0369 30.4443 30.309 30.1722C30.8528 29.6284 30.8528 28.7465 30.309 28.2027L29.6861 27.5805Z" fill="#33A78C"/>
<path d="M33.0696 8.84979C32.2804 9.63898 31.8457 10.6882 31.8457 11.804C31.8457 12.9202 32.2804 13.9694 33.0696 14.7586C33.884 15.5731 34.9541 15.9803 36.0242 15.9803C37.0942 15.9803 38.1639 15.5731 38.9784 14.7586C40.6077 13.1293 40.6077 10.4787 38.9784 8.84943C37.3495 7.22052 34.6985 7.22089 33.0696 8.84979ZM37.0089 12.7891C36.4658 13.3322 35.5822 13.3318 35.0391 12.7891C34.4963 12.246 34.4963 11.3624 35.0391 10.8193C35.5822 10.2766 36.4658 10.2766 37.0089 10.8193C37.552 11.3624 37.552 12.246 37.0089 12.7891Z" fill="#33A78C"/>
<path d="M47.1486 1.9294C47.1267 1.19295 46.5352 0.601155 45.7992 0.578817L26.8111 0.000569617C26.4237 -0.0104167 26.0509 0.137899 25.7791 0.412557L2.34164 24.0914C-0.530548 26.9932 -0.530548 31.7148 2.34164 34.6163L13.4243 45.8128C14.8199 47.2231 16.677 47.9998 18.653 47.9998C20.6287 47.9998 22.4858 47.2231 23.8818 45.8128L47.3189 22.134C47.5874 21.863 47.7327 21.4939 47.721 21.1126L47.1486 1.9294ZM21.9021 43.8532C21.0334 44.731 19.8795 45.2144 18.653 45.2144C17.4262 45.2144 16.2723 44.731 15.4037 43.8532L4.32138 32.6567C2.51852 30.8355 2.51852 27.8721 4.32138 26.051L27.3322 2.80318L44.4035 3.3232L44.9192 20.5992L21.9021 43.8532Z" fill="#33A78C"/>
</g>
<defs>
<clipPath id="clip0_564_38918">
<rect width="48" height="48" fill="white"/>
</clipPath>
</defs>
</svg>
