<svg width="24" height="24" viewBox="0 0 24 24" fill="none" xmlns="http://www.w3.org/2000/svg">
<g clip-path="url(#clip0_917_42758)">
<path d="M13.0999 1C10.6816 1.01177 8.33556 1.82542 6.4293 3.31348C4.52304 4.80153 3.16426 6.87992 2.56586 9.223L1.83386 8.116C1.76456 8.0001 1.67251 7.89944 1.56325 7.82009C1.454 7.74073 1.3298 7.68433 1.19815 7.65428C1.0665 7.62422 0.930135 7.62114 0.797265 7.64522C0.664395 7.6693 0.537779 7.72004 0.425051 7.79438C0.312323 7.86872 0.215819 7.96512 0.141358 8.07777C0.0668978 8.19042 0.0160235 8.31699 -0.00819679 8.44983C-0.0324171 8.58267 -0.0294815 8.71905 0.000432834 8.85073C0.0303472 8.9824 0.0866206 9.10666 0.16586 9.216L2.36586 12.55C2.51868 12.7638 2.74399 12.9149 2.99986 12.975C3.26113 13.0268 3.53231 12.9748 3.75586 12.83L7.05586 10.607C7.16964 10.5359 7.26796 10.4427 7.34497 10.3329C7.42198 10.2231 7.47611 10.0989 7.50412 9.96767C7.53214 9.83648 7.53348 9.701 7.50806 9.56929C7.48264 9.43758 7.43097 9.31233 7.35615 9.20099C7.28132 9.08966 7.18486 8.99451 7.0725 8.92123C6.96015 8.84794 6.8342 8.79801 6.70215 8.77441C6.5701 8.7508 6.43465 8.75401 6.30386 8.78383C6.17307 8.81365 6.04962 8.86948 5.94086 8.948L4.43986 9.96C4.83934 8.33839 5.68659 6.86172 6.88494 5.69847C8.0833 4.53521 9.58449 3.73222 11.2173 3.38111C12.85 3.03 14.5486 3.14491 16.1192 3.71272C17.6898 4.28054 19.0692 5.27839 20.1 6.59244C21.1307 7.90649 21.7714 9.48382 21.9488 11.1445C22.1263 12.8051 21.8333 14.4822 21.1035 15.9843C20.3736 17.4865 19.2362 18.7533 17.8211 19.6401C16.4059 20.527 14.77 20.9982 13.0999 21C11.6682 20.9961 10.2586 20.6466 8.99101 19.9812C7.72338 19.3158 6.63516 18.3542 5.81886 17.178C5.74575 17.0657 5.65083 16.9693 5.53974 16.8944C5.42864 16.8196 5.30364 16.7678 5.17214 16.7422C5.04065 16.7166 4.90535 16.7176 4.77427 16.7453C4.64319 16.773 4.51901 16.8267 4.40911 16.9033C4.2992 16.9799 4.2058 17.0778 4.13447 17.1912C4.06313 17.3046 4.0153 17.4312 3.99382 17.5634C3.97235 17.6956 3.97766 17.8308 4.00945 17.961C4.04123 18.0911 4.09884 18.2136 4.17886 18.321C5.50593 20.2342 7.41169 21.6712 9.61607 22.4209C11.8204 23.1706 14.2072 23.1934 16.4255 22.4859C18.6438 21.7785 20.5767 20.3782 21.94 18.4907C23.3034 16.6033 24.0254 14.3282 23.9999 12C24.0097 9.09691 22.8677 6.30844 20.8243 4.24629C18.7808 2.18413 16.0029 1.01667 13.0999 1Z" fill="#2E3646"/>
<path d="M13 5.9502C12.7348 5.9502 12.4804 6.05555 12.2929 6.24309C12.1054 6.43063 12 6.68498 12 6.9502V12.0002C12.0043 12.2645 12.109 12.5173 12.293 12.7072L15.293 15.7342C15.4813 15.9195 15.7344 16.0239 15.9986 16.0252C16.2627 16.0265 16.5169 15.9246 16.707 15.7412C16.8953 15.5545 17.0017 15.3006 17.0028 15.0354C17.0039 14.7703 16.8997 14.5155 16.713 14.3272L14 11.5892V6.9502C14 6.68498 13.8946 6.43063 13.7071 6.24309C13.5196 6.05555 13.2652 5.9502 13 5.9502Z" fill="#2E3646"/>
</g>
<defs>
<clipPath id="clip0_917_42758">
<rect width="24" height="24" fill="white"/>
</clipPath>
</defs>
</svg>
