<svg width="48" height="48" viewBox="0 0 48 48" fill="none" xmlns="http://www.w3.org/2000/svg">
<g clip-path="url(#clip0_564_38947)">
<path d="M28.8001 47.9997H12.7951C10.6759 47.9957 8.6446 47.1521 7.14611 45.6536C5.64761 44.1551 4.80401 42.1239 4.80005 40.0047V7.99469C4.80401 5.8755 5.64761 3.84424 7.14611 2.34575C8.6446 0.847254 10.6759 0.00365246 12.7951 -0.00031235C13.0178 -0.0219265 13.2427 0.00330061 13.4552 0.0737484C13.6676 0.144196 13.863 0.258307 14.0288 0.40875C14.1945 0.559193 14.3269 0.742642 14.4176 0.947312C14.5082 1.15198 14.555 1.37335 14.555 1.59719C14.555 1.82103 14.5082 2.04239 14.4176 2.24706C14.3269 2.45173 14.1945 2.63518 14.0288 2.78563C13.863 2.93607 13.6676 3.05018 13.4552 3.12063C13.2427 3.19107 13.0178 3.2163 12.7951 3.19469C11.522 3.19469 10.3011 3.7004 9.40094 4.60058C8.50076 5.50075 7.99505 6.72165 7.99505 7.99469V40.0047C7.99505 41.2777 8.50076 42.4986 9.40094 43.3988C10.3011 44.299 11.522 44.8047 12.7951 44.8047H28.8001C29.0228 44.7831 29.2477 44.8083 29.4602 44.8787C29.6726 44.9492 29.868 45.0633 30.0338 45.2137C30.1995 45.3642 30.3319 45.5476 30.4226 45.7523C30.5132 45.957 30.56 46.1783 30.56 46.4022C30.56 46.626 30.5132 46.8474 30.4226 47.0521C30.3319 47.2567 30.1995 47.4402 30.0338 47.5906C29.868 47.7411 29.6726 47.8552 29.4602 47.9256C29.2477 47.9961 29.0228 48.0213 28.8001 47.9997Z" fill="#33A78C"/>
<path d="M35.2049 47.9997C34.9821 48.0213 34.7573 47.9961 34.5448 47.9256C34.3323 47.8552 34.137 47.7411 33.9712 47.5906C33.8055 47.4402 33.673 47.2567 33.5824 47.0521C33.4918 46.8474 33.4449 46.626 33.4449 46.4022C33.4449 46.1783 33.4918 45.957 33.5824 45.7523C33.673 45.5476 33.8055 45.3642 33.9712 45.2137C34.137 45.0633 34.3323 44.9492 34.5448 44.8787C34.7573 44.8083 34.9821 44.7831 35.2049 44.8047C36.478 44.8047 37.6989 44.299 38.599 43.3988C39.4992 42.4986 40.0049 41.2777 40.0049 40.0047V7.99469C40.0049 6.72165 39.4992 5.50075 38.599 4.60058C37.6989 3.7004 36.478 3.19469 35.2049 3.19469H19.1999C18.9771 3.2163 18.7523 3.19107 18.5398 3.12063C18.3273 3.05018 18.132 2.93607 17.9662 2.78563C17.8005 2.63518 17.668 2.45173 17.5774 2.24706C17.4868 2.04239 17.4399 1.82103 17.4399 1.59719C17.4399 1.37335 17.4868 1.15198 17.5774 0.947312C17.668 0.742642 17.8005 0.559193 17.9662 0.40875C18.132 0.258307 18.3273 0.144196 18.5398 0.0737484C18.7523 0.00330061 18.9771 -0.0219265 19.1999 -0.00031235H35.2049C37.3241 0.00365246 39.3554 0.847254 40.8539 2.34575C42.3524 3.84424 43.196 5.8755 43.1999 7.99469V40.0047C43.196 42.1239 42.3524 44.1551 40.8539 45.6536C39.3554 47.1521 37.3241 47.9957 35.2049 47.9997Z" fill="#33A78C"/>
<path d="M30.3899 31.9955H17.5949C17.3721 32.0171 17.1473 31.9919 16.9348 31.9214C16.7224 31.851 16.527 31.7368 16.3612 31.5864C16.1955 31.436 16.0631 31.2525 15.9724 31.0478C15.8818 30.8432 15.835 30.6218 15.835 30.398C15.835 30.1741 15.8818 29.9528 15.9724 29.7481C16.0631 29.5434 16.1955 29.36 16.3612 29.2095C16.527 29.0591 16.7224 28.945 16.9348 28.8745C17.1473 28.8041 17.3721 28.7789 17.5949 28.8005H30.3899C30.6127 28.7789 30.8376 28.8041 31.0501 28.8745C31.2625 28.945 31.4579 29.0591 31.6236 29.2095C31.7894 29.36 31.9218 29.5434 32.0125 29.7481C32.1031 29.9528 32.1499 30.1741 32.1499 30.398C32.1499 30.6218 32.1031 30.8432 32.0125 31.0478C31.9218 31.2525 31.7894 31.436 31.6236 31.5864C31.4579 31.7368 31.2625 31.851 31.0501 31.9214C30.8376 31.9919 30.6127 32.0171 30.3899 31.9955Z" fill="#33A78C"/>
<path d="M28.7999 38.3998H19.1999C18.9771 38.4214 18.7523 38.3962 18.5398 38.3257C18.3273 38.2553 18.132 38.1411 17.9662 37.9907C17.8005 37.8403 17.668 37.6568 17.5774 37.4521C17.4868 37.2475 17.4399 37.0261 17.4399 36.8023C17.4399 36.5784 17.4868 36.3571 17.5774 36.1524C17.668 35.9477 17.8005 35.7643 17.9662 35.6138C18.132 35.4634 18.3273 35.3493 18.5398 35.2788C18.7523 35.2084 18.9771 35.1832 19.1999 35.2048H28.7999C29.0227 35.1832 29.2476 35.2084 29.46 35.2788C29.6725 35.3493 29.8679 35.4634 30.0336 35.6138C30.1994 35.7643 30.3318 35.9477 30.4224 36.1524C30.5131 36.3571 30.5599 36.5784 30.5599 36.8023C30.5599 37.0261 30.5131 37.2475 30.4224 37.4521C30.3318 37.6568 30.1994 37.8403 30.0336 37.9907C29.8679 38.1411 29.6725 38.2553 29.46 38.3257C29.2476 38.3962 29.0227 38.4214 28.7999 38.3998Z" fill="#33A78C"/>
<path d="M23.3547 20.0405C22.929 20.0405 22.5208 19.8714 22.2198 19.5704C21.9188 19.2694 21.7497 18.8611 21.7497 18.4355V17.5655C21.7497 16.8016 22.0531 16.0691 22.5932 15.529C23.1333 14.9889 23.8659 14.6855 24.6297 14.6855C24.7558 14.6875 24.881 14.6646 24.9982 14.6182C25.1155 14.5717 25.2224 14.5027 25.313 14.4149C25.4035 14.3272 25.4759 14.2224 25.5259 14.1067C25.576 13.991 25.6028 13.8665 25.6047 13.7405V11.7605C25.6008 11.511 25.5 11.2729 25.3236 11.0965C25.1473 10.9201 24.9091 10.8193 24.6597 10.8155H23.3697C23.1191 10.8155 22.8787 10.915 22.7015 11.0923C22.5243 11.2695 22.4247 11.5098 22.4247 11.7605C22.4227 11.9712 22.3793 12.1796 22.2968 12.3735C22.2143 12.5675 22.0945 12.7434 21.944 12.891C21.7936 13.0386 21.6156 13.1552 21.4201 13.2341C21.2246 13.3129 21.0155 13.3524 20.8047 13.3505C20.3816 13.3505 19.9756 13.1835 19.6751 12.8857C19.3745 12.5879 19.2037 12.1835 19.1997 11.7605C19.1997 10.6585 19.6375 9.60165 20.4167 8.82244C21.1959 8.04323 22.2527 7.60547 23.3547 7.60547H24.6447C25.7467 7.60547 26.8035 8.04323 27.5827 8.82244C28.3619 9.60165 28.7997 10.6585 28.7997 11.7605V13.7405C28.7987 14.7898 28.4006 15.7999 27.6855 16.5678C26.9705 17.3358 25.9913 17.8047 24.9447 17.8805V18.4355C24.9447 18.8586 24.7777 19.2645 24.4799 19.5651C24.1822 19.8657 23.7778 20.0365 23.3547 20.0405Z" fill="#33A78C"/>
<path d="M23.355 24.8399C23.0376 24.8399 22.7273 24.7458 22.4633 24.5694C22.1994 24.393 21.9937 24.1424 21.8722 23.8491C21.7507 23.5558 21.7189 23.2331 21.7808 22.9218C21.8428 22.6104 21.9956 22.3244 22.2201 22.1C22.4446 21.8755 22.7305 21.7227 23.0419 21.6607C23.3532 21.5988 23.6759 21.6306 23.9692 21.7521C24.2625 21.8735 24.5132 22.0793 24.6895 22.3432C24.8659 22.6071 24.96 22.9174 24.96 23.2349C24.96 23.6606 24.7909 24.0688 24.4899 24.3698C24.1889 24.6708 23.7807 24.8399 23.355 24.8399Z" fill="#33A78C"/>
</g>
<defs>
<clipPath id="clip0_564_38947">
<rect width="48" height="48" fill="white"/>
</clipPath>
</defs>
</svg>
