<svg width="32" height="32" viewBox="0 0 32 32" fill="none" xmlns="http://www.w3.org/2000/svg">
<path d="M22.3054 1.94647C22.3901 1.74647 22.3975 1.52211 22.3261 1.31697C22.2547 1.11183 22.1095 0.940575 21.9189 0.836469C21.0035 0.340816 19.9726 0.0980712 18.9323 0.133224C17.8919 0.168377 16.8797 0.480158 15.9999 1.03647C15.12 0.480406 14.1078 0.168773 13.0675 0.133621C12.0272 0.0984702 10.9963 0.34107 10.0809 0.836469C9.89025 0.940575 9.74512 1.11183 9.67369 1.31697C9.60226 1.52211 9.60964 1.74647 9.69439 1.94647L11.6784 6.62497H20.3214L22.3054 1.94647Z" fill="#33A78C"/>
<path d="M20.718 8.375H21.5C21.7321 8.375 21.9546 8.28281 22.1187 8.11872C22.2828 7.95462 22.375 7.73206 22.375 7.5C22.375 7.26794 22.2828 7.04538 22.1187 6.88128C21.9546 6.71719 21.7321 6.625 21.5 6.625H20.3215L20 7.3855L20.718 8.375Z" fill="#33A78C"/>
<path d="M11.6785 6.625H10.5C10.2679 6.625 10.0454 6.71719 9.88128 6.88128C9.71719 7.04538 9.625 7.26794 9.625 7.5C9.625 7.73206 9.71719 7.95462 9.88128 8.11872C10.0454 8.28281 10.2679 8.375 10.5 8.375H11.282L12 7.3855L11.6785 6.625Z" fill="#33A78C"/>
<path d="M23.2965 11.92L20.7181 8.375H11.282L8.70405 11.92C5.71877 16.0067 4.11471 20.9391 4.12505 26C4.12677 27.5576 4.74629 29.0509 5.8477 30.1524C6.9491 31.2538 8.44243 31.8733 10 31.875H22C23.5577 31.8733 25.051 31.2538 26.1524 30.1524C27.2538 29.0509 27.8733 27.5576 27.875 26C27.8853 20.9391 26.2815 16.0069 23.2965 11.92ZM16 18.625C16.8185 18.6246 17.6092 18.9217 18.2247 19.4611C18.8403 20.0005 19.2387 20.7453 19.3458 21.5567C19.4529 22.3681 19.2613 23.1908 18.8067 23.8714C18.3521 24.552 17.6656 25.0441 16.875 25.256V26.5C16.875 26.7321 16.7829 26.9546 16.6188 27.1187C16.4547 27.2828 16.2321 27.375 16 27.375C15.768 27.375 15.5454 27.2828 15.3813 27.1187C15.2172 26.9546 15.125 26.7321 15.125 26.5V25.256C14.4086 25.0632 13.7756 24.6398 13.3237 24.0513C12.8719 23.4628 12.6263 22.7419 12.625 22C12.625 21.7679 12.7172 21.5454 12.8813 21.3813C13.0454 21.2172 13.268 21.125 13.5 21.125C13.7321 21.125 13.9547 21.2172 14.1188 21.3813C14.2829 21.5454 14.375 21.7679 14.375 22C14.375 22.3214 14.4704 22.6356 14.6489 22.9028C14.8275 23.17 15.0813 23.3783 15.3782 23.5013C15.6751 23.6243 16.0019 23.6565 16.3171 23.5938C16.6323 23.5311 16.9218 23.3763 17.1491 23.149C17.3764 22.9218 17.5311 22.6322 17.5938 22.317C17.6565 22.0018 17.6243 21.6751 17.5014 21.3781C17.3784 21.0812 17.1701 20.8274 16.9029 20.6489C16.6356 20.4703 16.3214 20.375 16 20.375C15.1816 20.3754 14.3909 20.0783 13.7754 19.5389C13.1598 18.9995 12.7614 18.2547 12.6543 17.4433C12.5472 16.6319 12.7388 15.8092 13.1934 15.1286C13.648 14.448 14.3345 13.9559 15.125 13.744V12.5C15.125 12.2679 15.2172 12.0454 15.3813 11.8813C15.5454 11.7172 15.768 11.625 16 11.625C16.2321 11.625 16.4547 11.7172 16.6188 11.8813C16.7829 12.0454 16.875 12.2679 16.875 12.5V13.744C17.5915 13.9368 18.2245 14.3602 18.6764 14.9487C19.1282 15.5372 19.3738 16.2581 19.375 17C19.375 17.2321 19.2829 17.4546 19.1188 17.6187C18.9547 17.7828 18.7321 17.875 18.5 17.875C18.268 17.875 18.0454 17.7828 17.8813 17.6187C17.7172 17.4546 17.625 17.2321 17.625 17C17.625 16.6786 17.5297 16.3644 17.3512 16.0972C17.1726 15.83 16.9188 15.6217 16.6219 15.4987C16.325 15.3757 15.9982 15.3435 15.683 15.4062C15.3678 15.4689 15.0783 15.6237 14.851 15.851C14.6237 16.0782 14.469 16.3678 14.4063 16.683C14.3436 16.9982 14.3758 17.3249 14.4987 17.6219C14.6217 17.9188 14.83 18.1726 15.0972 18.3511C15.3645 18.5297 15.6787 18.625 16 18.625Z" fill="#33A78C"/>
</svg>
