<svg width="48" height="48" viewBox="0 0 48 48" fill="none" xmlns="http://www.w3.org/2000/svg">
<path d="M2.54443 35.0307C2.54443 40.7787 7.22173 45.456 12.9697 45.456H35.0302C40.7782 45.456 45.4555 40.7787 45.4555 35.0307V12.9702C45.4555 7.22222 40.7782 2.54492 35.0302 2.54492H12.9697C7.22173 2.54492 2.54443 7.22222 2.54443 12.9702V35.0307ZM5.54443 12.9702C5.54443 8.87597 8.87548 5.54492 12.9697 5.54492H35.0302C39.1245 5.54492 42.4555 8.87597 42.4555 12.9702V35.0307C42.4555 39.125 39.1245 42.456 35.0302 42.456H12.9697C8.87548 42.456 5.54443 39.125 5.54443 35.0307V12.9702Z" fill="#33A78C"/>
<path d="M12.9645 26.5726C14.3847 26.5726 15.5358 25.4213 15.5358 24.0011C15.5358 22.5809 14.3846 21.4297 12.9645 21.4297C11.5445 21.4297 10.3931 22.5809 10.3931 24.0011C10.3931 25.4213 11.5443 26.5726 12.9645 26.5726Z" fill="#33A78C"/>
<path d="M24 26.5707C25.4199 26.5707 26.571 25.4196 26.571 23.9997C26.571 22.5798 25.4199 21.4287 24 21.4287C22.58 21.4287 21.429 22.5798 21.429 23.9997C21.429 25.4196 22.58 26.5707 24 26.5707Z" fill="#33A78C"/>
<path d="M35.0352 26.5726C36.4554 26.5726 37.6066 25.4213 37.6066 24.0011C37.6066 22.5809 36.4554 21.4297 35.0352 21.4297C33.615 21.4297 32.4639 22.5809 32.4639 24.0011C32.4639 25.4213 33.615 26.5726 35.0352 26.5726Z" fill="#33A78C"/>
</svg>
