<svg width="48" height="48" viewBox="0 0 48 48" fill="none" xmlns="http://www.w3.org/2000/svg">
<path d="M12.75 31.125C12.75 33.196 11.071 34.875 9 34.875C6.92897 34.875 5.25 33.196 5.25 31.125V24.375C5.25 22.304 6.92897 20.625 9 20.625C11.071 20.625 12.75 22.304 12.75 24.375V31.125Z" stroke="#33A78C" stroke-width="3" stroke-miterlimit="10" stroke-linecap="round" stroke-linejoin="round"/>
<path d="M42.75 31.125C42.75 33.196 41.071 34.875 39 34.875C36.929 34.875 35.25 33.196 35.25 31.125V24.375C35.25 22.304 36.929 20.625 39 20.625C41.071 20.625 42.75 22.304 42.75 24.375V31.125Z" stroke="#33A78C" stroke-width="3" stroke-miterlimit="10" stroke-linecap="round" stroke-linejoin="round"/>
<path d="M5.25 24.375V20.625C5.25 10.2697 13.6447 1.875 24 1.875C34.3553 1.875 42.75 10.2697 42.75 20.625V24.375" stroke="#33A78C" stroke-width="3" stroke-miterlimit="10" stroke-linecap="round" stroke-linejoin="round"/>
<path d="M42.75 31.125V34.875C42.75 39.0172 39.3922 42.375 35.25 42.375H27.75" stroke="#33A78C" stroke-width="3" stroke-miterlimit="10" stroke-linecap="round" stroke-linejoin="round"/>
<path d="M24 46.125C26.0711 46.125 27.75 44.4461 27.75 42.375C27.75 40.3039 26.0711 38.625 24 38.625C21.9289 38.625 20.25 40.3039 20.25 42.375C20.25 44.4461 21.9289 46.125 24 46.125Z" stroke="#33A78C" stroke-width="3" stroke-miterlimit="10" stroke-linecap="round" stroke-linejoin="round"/>
</svg>
