<svg width="48" height="48" viewBox="0 0 48 48" fill="none" xmlns="http://www.w3.org/2000/svg">
<path fill-rule="evenodd" clip-rule="evenodd" d="M27.2177 3.89842C25.2546 2.70053 22.783 2.70053 20.82 3.89842C19.5172 4.69479 17.9892 5.62946 17.1303 6.15368C16.8515 6.32545 16.5437 6.4459 16.2224 6.5106C14.8349 6.78721 11.8458 7.38504 9.43212 7.86687C6.56342 8.4424 4.5 10.9587 4.5 13.8831V22.1123C4.5 33.5938 12.3142 43.6008 23.4522 46.3847C23.8225 46.4784 24.2129 46.4784 24.5832 46.3847C35.7212 43.6008 43.5376 33.5938 43.5376 22.1123C43.5376 18.987 43.5376 16.0536 43.5376 13.8831C43.5376 10.9587 41.4742 8.4424 38.6055 7.86687C36.1918 7.38504 33.2027 6.78721 31.8152 6.5106C31.4939 6.4459 31.1861 6.32545 30.9073 6.15368C30.0484 5.62946 28.5204 4.69479 27.2177 3.89842ZM24.0188 43.0743C33.5373 40.5782 40.1915 31.972 40.1915 22.1123C40.1915 18.987 40.1915 16.0536 40.1915 13.8831C40.1915 12.5536 39.2524 11.4093 37.9497 11.1483C35.536 10.6664 32.5468 10.0686 31.1593 9.78976C30.4522 9.64922 29.7785 9.38599 29.1628 9.009C28.304 8.48478 26.7737 7.55011 25.4732 6.75374C24.5809 6.20945 23.4567 6.20945 22.5644 6.75374C21.2639 7.55011 19.7336 8.48478 18.8748 9.009C18.2591 9.38599 17.5854 9.64922 16.8783 9.78976C15.4908 10.0686 12.5016 10.6664 10.088 11.1483C8.78521 11.4093 7.84608 12.5536 7.84608 13.8831V22.1123C7.84608 31.972 14.5003 40.5782 24.0188 43.0743Z" fill="#33A78C"/>
<path fill-rule="evenodd" clip-rule="evenodd" d="M21.7883 26.8438L29.5289 19.1054C30.1803 18.4518 31.2421 18.4518 31.8935 19.1054C32.5471 19.7568 32.5471 20.8186 31.8935 21.47L22.9706 30.3929C22.317 31.0465 21.2597 31.0465 20.6061 30.3929L17.26 27.0468C16.6064 26.3954 16.6064 25.3336 17.26 24.6822C17.9113 24.0286 18.9732 24.0286 19.6245 24.6822L21.7883 26.8438Z" fill="#33A78C"/>
</svg>
