<svg width="24" height="24" viewBox="0 0 24 24" fill="none" xmlns="http://www.w3.org/2000/svg">
<g clip-path="url(#clip0_996_45760)">
<path d="M12.0547 3.76727H12.054C5.8331 3.73599 1.80041 10.5338 4.95053 16.0292L4.95055 16.0292C5.18469 16.438 5.04341 16.9592 4.63463 17.1936L4.63456 17.1936C4.2254 17.428 3.70439 17.2862 3.47022 16.8777C-0.314396 10.2752 4.47606 2.06084 12.0245 2.06084L12.0209 2.06097C12.0059 2.06278 11.9542 2.13005 11.9519 2.2111C11.9761 2.21093 12.0003 2.21084 12.0245 2.21084C12.0278 2.21084 12.0272 2.21084 12.0262 2.21084C12.0253 2.21085 12.0242 2.21085 12.0245 2.21085C12.0253 2.21087 12.0376 2.21088 12.1021 2.2109M12.1021 2.2109C12.1035 2.2109 12.1049 2.2109 12.1064 2.2109C12.1095 2.166 12.0984 2.11519 12.0581 2.06469C12.0496 2.06305 12.0396 2.06182 12.0345 2.06129C12.0872 2.10871 12.1035 2.1623 12.1021 2.2109Z" fill="#2E3646" stroke="#2E3646" stroke-width="0.3"/>
<path d="M9.58198 21.8457L10.3826 22.6478L10.3826 22.6478C10.7154 22.9812 10.715 23.5213 10.3815 23.8543L10.3815 23.8543C10.0478 24.1874 9.5077 24.1865 9.17495 23.8533L9.17493 23.8532L6.93811 21.6126C6.58282 21.2772 6.58559 20.7227 6.91943 20.3884C6.91944 20.3884 6.91945 20.3884 6.91945 20.3884M9.58198 21.8457L7.02559 20.4944L6.91945 20.3884M9.58198 21.8457H12.043C19.5954 21.8456 24.3819 13.63 20.5981 7.02891C20.3639 6.6203 19.8425 6.47883 19.4337 6.71297L19.4337 6.713C19.0248 6.9474 18.8836 7.46882 19.1179 7.87758M9.58198 21.8457L19.1179 7.87758M6.91945 20.3884L9.17491 18.1291L6.91945 20.3884ZM10.2763 19.2286L10.3824 19.3345C10.7154 19.0011 10.715 18.461 10.3815 18.128L10.3815 18.128C10.048 17.7952 9.50776 17.7956 9.17493 18.1291L10.2755 18.2341C10.5504 18.5086 10.5507 18.9537 10.2763 19.2286ZM10.2763 19.2286L10.3824 19.3346M10.2763 19.2286L9.36692 20.1395H9.57887M10.3824 19.3346L19.5083 6.84313C19.1713 7.03631 19.0549 7.46606 19.2481 7.80297C22.4315 13.3566 18.4137 20.2895 12.0343 20.2895H9.42913L9.57887 20.1395M10.3824 19.3346L9.57887 20.1395M10.3824 19.3346L19.1179 7.87758M9.57887 20.1395H12.0343C18.2981 20.1395 22.2442 13.3314 19.1179 7.87758" fill="#2E3646" stroke="#2E3646" stroke-width="0.3"/>
<mask id="path-3-outside-1_996_45760" maskUnits="userSpaceOnUse" x="8.22168" y="6.03125" width="7" height="12" fill="black">
<rect fill="white" x="8.22168" y="6.03125" width="7" height="12"/>
<path d="M11.3311 9.84375H14.1436C14.5317 9.84375 14.8467 9.52881 14.8467 9.14063C14.8467 8.75226 14.5317 8.4375 14.1436 8.4375H12.7373V7.73438C12.7373 7.34601 12.4224 7.03125 12.0342 7.03125C11.6458 7.03125 11.3311 7.34601 11.3311 7.73438V8.4375C10.1678 8.4375 9.22168 9.38379 9.22168 10.5469C9.22168 11.71 10.1678 12.6563 11.3311 12.6563H12.7371C13.1249 12.6563 13.4404 12.9716 13.4404 13.3594C13.4404 13.7472 13.1268 14.0627 12.7371 14.0627C12.0106 14.0627 12.0342 14.0625 12.0342 14.0625C12.0331 14.0625 12.032 14.0627 12.0309 14.0627C12.0036 14.0627 9.90906 14.0625 9.92481 14.0625C9.53644 14.0625 9.22168 14.3773 9.22168 14.7654C9.2215 15.1538 9.53626 15.4686 9.92462 15.4688H11.3311V16.1719C11.3311 16.5601 11.6458 16.875 12.0342 16.875C12.4224 16.875 12.7373 16.5601 12.7373 16.1719V15.4689C13.903 15.4689 14.8467 14.5258 14.8467 13.3594C14.8467 12.1963 13.9002 11.25 12.7371 11.25H11.3311C10.9432 11.25 10.6279 10.9345 10.6279 10.5469C10.6279 10.1591 10.9432 9.84375 11.3311 9.84375Z"/>
</mask>
<path d="M11.3311 9.84375H14.1436C14.5317 9.84375 14.8467 9.52881 14.8467 9.14063C14.8467 8.75226 14.5317 8.4375 14.1436 8.4375H12.7373V7.73438C12.7373 7.34601 12.4224 7.03125 12.0342 7.03125C11.6458 7.03125 11.3311 7.34601 11.3311 7.73438V8.4375C10.1678 8.4375 9.22168 9.38379 9.22168 10.5469C9.22168 11.71 10.1678 12.6563 11.3311 12.6563H12.7371C13.1249 12.6563 13.4404 12.9716 13.4404 13.3594C13.4404 13.7472 13.1268 14.0627 12.7371 14.0627C12.0106 14.0627 12.0342 14.0625 12.0342 14.0625C12.0331 14.0625 12.032 14.0627 12.0309 14.0627C12.0036 14.0627 9.90906 14.0625 9.92481 14.0625C9.53644 14.0625 9.22168 14.3773 9.22168 14.7654C9.2215 15.1538 9.53626 15.4686 9.92462 15.4688H11.3311V16.1719C11.3311 16.5601 11.6458 16.875 12.0342 16.875C12.4224 16.875 12.7373 16.5601 12.7373 16.1719V15.4689C13.903 15.4689 14.8467 14.5258 14.8467 13.3594C14.8467 12.1963 13.9002 11.25 12.7371 11.25H11.3311C10.9432 11.25 10.6279 10.9345 10.6279 10.5469C10.6279 10.1591 10.9432 9.84375 11.3311 9.84375Z" fill="#2E3646"/>
<path d="M12.7373 8.4375H12.4373V8.7375H12.7373V8.4375ZM11.3311 8.4375V8.7375H11.6311V8.4375H11.3311ZM12.0342 14.0625L12.0365 14.3625L12.0342 13.7625V14.0625ZM9.22168 14.7654L9.52168 14.7656V14.7654H9.22168ZM9.92462 15.4688L9.92448 15.7688H9.92462V15.4688ZM11.3311 15.4688H11.6311V15.1688H11.3311V15.4688ZM12.7373 15.4689V15.1689H12.4373V15.4689H12.7373ZM11.3311 10.1438H14.1436V9.54375H11.3311V10.1438ZM14.1436 10.1438C14.6974 10.1438 15.1467 9.6945 15.1467 9.14063H14.5467C14.5467 9.36312 14.3661 9.54375 14.1436 9.54375V10.1438ZM15.1467 9.14063C15.1467 8.58652 14.6974 8.1375 14.1436 8.1375V8.7375C14.3661 8.7375 14.5467 8.918 14.5467 9.14063H15.1467ZM14.1436 8.1375H12.7373V8.7375H14.1436V8.1375ZM13.0373 8.4375V7.73438H12.4373V8.4375H13.0373ZM13.0373 7.73438C13.0373 7.18027 12.588 6.73125 12.0342 6.73125V7.33125C12.2567 7.33125 12.4373 7.51174 12.4373 7.73438H13.0373ZM12.0342 6.73125C11.4801 6.73125 11.0311 7.18032 11.0311 7.73438H11.6311C11.6311 7.51169 11.8115 7.33125 12.0342 7.33125V6.73125ZM11.0311 7.73438V8.4375H11.6311V7.73438H11.0311ZM11.3311 8.1375C10.0021 8.1375 8.92168 9.21812 8.92168 10.5469H9.52168C9.52168 9.54946 10.3335 8.7375 11.3311 8.7375V8.1375ZM8.92168 10.5469C8.92168 11.8756 10.0021 12.9563 11.3311 12.9563V12.3563C10.3335 12.3563 9.52168 11.5443 9.52168 10.5469H8.92168ZM11.3311 12.9563H12.7371V12.3563H11.3311V12.9563ZM12.7371 12.9563C12.9594 12.9563 13.1404 13.1373 13.1404 13.3594H13.7404C13.7404 12.8058 13.2905 12.3563 12.7371 12.3563V12.9563ZM13.1404 13.3594C13.1404 13.582 12.9606 13.7627 12.7371 13.7627V14.3627C13.293 14.3627 13.7404 13.9124 13.7404 13.3594H13.1404ZM12.7371 13.7627C12.3738 13.7627 12.1982 13.7626 12.1134 13.7626C12.0709 13.7626 12.0513 13.7625 12.0424 13.7625C12.0377 13.7625 12.0365 13.7625 12.0365 13.7625C12.0366 13.7625 12.0367 13.7625 12.037 13.7625C12.0372 13.7625 12.0376 13.7625 12.0381 13.7625C12.0384 13.7625 12.0399 13.7626 12.0418 13.7626C12.0425 13.7626 12.045 13.7627 12.0483 13.7628C12.0497 13.7629 12.0537 13.7631 12.0588 13.7635C12.0616 13.7638 12.0686 13.7645 12.0728 13.765C12.0806 13.7661 12.1052 13.7711 12.1219 13.7756C12.1868 13.8043 12.334 14.0697 12.2326 14.2874C12.1795 14.3249 12.1037 14.3543 12.0876 14.3577C12.0801 14.359 12.0684 14.3605 12.0643 14.361C12.0616 14.3612 12.057 14.3616 12.0551 14.3618C12.049 14.3622 12.044 14.3623 12.0436 14.3624C12.0411 14.3624 12.039 14.3625 12.0388 14.3625C12.0381 14.3625 12.0375 14.3625 12.0372 14.3625C12.0371 14.3625 12.0369 14.3625 12.0368 14.3625C12.0368 14.3625 12.0367 14.3625 12.0367 14.3625C12.0366 14.3625 12.0366 14.3625 12.0366 14.3625C12.0365 14.3625 12.0365 14.3625 12.0342 14.0625C12.0319 13.7625 12.0318 13.7625 12.0318 13.7625C12.0318 13.7625 12.0317 13.7625 12.0317 13.7625C12.0317 13.7625 12.0316 13.7625 12.0315 13.7625C12.0314 13.7625 12.0313 13.7625 12.0311 13.7625C12.0308 13.7625 12.0302 13.7625 12.0295 13.7625C12.0292 13.7625 12.0272 13.7626 12.0246 13.7627C12.0242 13.7627 12.0192 13.7628 12.0131 13.7632C12.0112 13.7634 12.0066 13.7638 12.0039 13.764C11.9998 13.7645 11.9881 13.7661 11.9806 13.7673C11.9645 13.7707 11.8887 13.8001 11.8356 13.8376C11.7342 14.0553 11.8814 14.3207 11.9463 14.3494C11.9629 14.3539 11.9876 14.3589 11.9954 14.36C11.9996 14.3605 12.0066 14.3612 12.0094 14.3615C12.0145 14.3619 12.0185 14.3621 12.0199 14.3622C12.0232 14.3623 12.0257 14.3624 12.0265 14.3624C12.0284 14.3625 12.0299 14.3625 12.0303 14.3625C12.0314 14.3625 12.0323 14.3625 12.0326 14.3625C12.0342 14.3625 12.0368 14.3625 12.0413 14.3625C12.0506 14.3625 12.0706 14.3626 12.113 14.3626C12.198 14.3626 12.3738 14.3627 12.7371 14.3627V13.7627ZM12.0342 13.7625C12.0257 13.7625 12.0189 13.7629 12.0146 13.7631C12.0125 13.7633 12.0107 13.7634 12.0096 13.7635C12.0085 13.7636 12.0076 13.7636 12.0076 13.7636C12.0068 13.7637 12.0096 13.7635 12.013 13.7632C12.0167 13.763 12.023 13.7627 12.0309 13.7627V14.3627C12.0393 14.3627 12.0462 14.3623 12.0504 14.3621C12.0526 14.3619 12.0544 14.3618 12.0555 14.3617C12.0565 14.3616 12.0574 14.3616 12.0574 14.3616C12.0582 14.3615 12.0554 14.3617 12.0521 14.3619C12.0484 14.3622 12.0421 14.3625 12.0342 14.3625V13.7625ZM12.0309 13.7627C12.0173 13.7627 11.4868 13.7626 10.9617 13.7626C10.6992 13.7626 10.438 13.7625 10.2434 13.7625C10.1461 13.7625 10.0655 13.7625 10.0097 13.7625C9.98178 13.7625 9.96007 13.7625 9.94559 13.7625C9.93835 13.7625 9.93291 13.7625 9.92941 13.7625C9.92766 13.7625 9.9264 13.7625 9.92563 13.7625C9.92525 13.7625 9.92499 13.7625 9.92487 13.7625C9.92447 13.7625 9.92497 13.7625 9.92535 13.7625C10.2247 14.0628 9.92478 14.3625 9.92477 14.3625C9.92477 14.3625 9.92478 14.3625 9.92481 14.3625V13.7625C9.92477 13.7625 9.92473 13.7625 9.92471 13.7625C9.92466 13.7625 9.62472 14.0622 9.92408 14.3625C9.92435 14.3625 9.92464 14.3625 9.92467 14.3625C9.9247 14.3625 9.92473 14.3625 9.92477 14.3625C9.92491 14.3625 9.92518 14.3625 9.92556 14.3625C9.92633 14.3625 9.9276 14.3625 9.92935 14.3625C9.93286 14.3625 9.93829 14.3625 9.94553 14.3625C9.96002 14.3625 9.98172 14.3625 10.0096 14.3625C10.0655 14.3625 10.1461 14.3625 10.2434 14.3625C10.4379 14.3625 10.6991 14.3626 10.9617 14.3626C11.4867 14.3626 12.0172 14.3627 12.0309 14.3627V13.7627ZM9.92481 13.7625C9.3708 13.7625 8.92168 14.2115 8.92168 14.7654H9.52168C9.52168 14.543 9.70207 14.3625 9.92481 14.3625V13.7625ZM8.92168 14.7653C8.92142 15.3195 9.37059 15.7685 9.92448 15.7688L9.92476 15.1688C9.70192 15.1686 9.52157 14.9881 9.52168 14.7656L8.92168 14.7653ZM9.92462 15.7688H11.3311V15.1688H9.92462V15.7688ZM11.0311 15.4688V16.1719H11.6311V15.4688H11.0311ZM11.0311 16.1719C11.0311 16.7257 11.4801 17.175 12.0342 17.175V16.575C11.8116 16.575 11.6311 16.3944 11.6311 16.1719H11.0311ZM12.0342 17.175C12.5881 17.175 13.0373 16.7257 13.0373 16.1719H12.4373C12.4373 16.3944 12.2567 16.575 12.0342 16.575V17.175ZM13.0373 16.1719V15.4689H12.4373V16.1719H13.0373ZM12.7373 15.7689C14.0686 15.7689 15.1467 14.6915 15.1467 13.3594H14.5467C14.5467 14.36 13.7373 15.1689 12.7373 15.1689V15.7689ZM15.1467 13.3594C15.1467 12.0306 14.0659 10.95 12.7371 10.95V11.55C13.7346 11.55 14.5467 12.362 14.5467 13.3594H15.1467ZM12.7371 10.95H11.3311V11.55H12.7371V10.95ZM11.3311 10.95C11.109 10.95 10.9279 10.7689 10.9279 10.5469H10.3279C10.3279 11.1001 10.7775 11.55 11.3311 11.55V10.95ZM10.9279 10.5469C10.9279 10.3247 11.1089 10.1438 11.3311 10.1438V9.54375C10.7776 9.54375 10.3279 9.99337 10.3279 10.5469H10.9279Z" fill="#2E3646" mask="url(#path-3-outside-1_996_45760)"/>
</g>
<defs>
<clipPath id="clip0_996_45760">
<rect width="24" height="24" fill="white"/>
</clipPath>
</defs>
</svg>
