<svg width="48" height="48" viewBox="0 0 48 48" fill="none" xmlns="http://www.w3.org/2000/svg">
<g clip-path="url(#clip0_564_38959)">
<path d="M17.4683 23.4888C15.5866 23.4888 13.7056 22.7725 12.2063 21.3393C9.41259 18.6685 6.82659 13.9225 7.34634 9.33778C7.48209 8.13853 7.79184 6.55603 8.98884 4.94953C11.0198 2.22403 14.0903 0.655031 17.4113 0.644531H17.4458C20.7841 0.644531 23.8801 2.20828 25.9433 4.93978C27.1486 6.55753 27.4583 8.13928 27.5933 9.33778L27.5971 9.37153C28.0358 14.0148 25.4693 18.7285 22.7311 21.34C21.2311 22.7725 19.3493 23.4888 17.4683 23.4888ZM17.4466 4.39453C17.4391 4.39453 17.4316 4.39453 17.4241 4.39453C15.2941 4.40128 13.3148 5.42053 11.9956 7.19128C11.4661 7.90153 11.1983 8.64553 11.0723 9.76003C10.7161 12.9033 12.6773 16.6015 14.7983 18.6288C16.3456 20.107 18.5941 20.107 20.1443 18.6273C22.6036 16.282 24.1321 12.631 23.8666 9.74278C23.7398 8.63878 23.4728 7.89928 22.9448 7.19128C21.6046 5.41678 19.5983 4.39453 17.4466 4.39453Z" fill="#33A78C"/>
<path d="M30.2272 41.4509C29.7945 42.7004 28.6177 43.6064 27.2227 43.6064H7.70323C5.94373 43.6064 4.51198 42.1746 4.51198 40.4151V38.9549C4.51198 36.0734 5.85598 33.4011 8.01898 31.9806C9.37498 31.0896 10.9507 30.6201 12.5767 30.6201H22.3507C22.548 30.6201 22.7437 30.6276 22.9395 30.6411C22.8652 30.0479 22.8142 29.4471 22.8142 28.8344C22.8142 28.1744 22.8742 27.5294 22.9605 26.8919C22.758 26.8814 22.5555 26.8701 22.3515 26.8701H12.576C10.2165 26.8701 7.92898 27.5534 5.96023 28.8464C2.70523 30.9839 0.76123 34.7631 0.76123 38.9556V40.4159C0.76123 44.2439 3.87523 47.3571 7.70248 47.3571H27.222C30.1972 47.3571 32.7337 45.4724 33.7192 42.8369C32.4862 42.5219 31.3125 42.0591 30.2272 41.4509Z" fill="#33A78C"/>
<path d="M46.4543 27.2503L45.0847 26.9158C44.9145 26.1523 44.6437 25.4263 44.2882 24.7521L45.1147 23.6121C45.393 23.2281 45.3728 22.7038 45.066 22.3431L44.3063 21.4491C43.9995 21.0876 43.4858 20.9833 43.062 21.1956L41.8013 21.8286C40.8203 21.0891 39.6795 20.5506 38.4397 20.2746L38.106 18.9066C37.9935 18.4461 37.581 18.1221 37.107 18.1221H35.934C35.46 18.1221 35.0475 18.4461 34.935 18.9066L34.6012 20.2761C33.4245 20.5393 32.3362 21.0388 31.3905 21.7228L30.1432 21.0651C29.724 20.8438 29.208 20.9383 28.8937 21.2931L28.116 22.1713C27.8017 22.5261 27.771 23.0496 28.0417 23.4388L28.8442 24.5938C28.446 25.3131 28.1467 26.0938 27.9622 26.9181L26.61 27.2406C26.1487 27.3501 25.8225 27.7611 25.8202 28.2351L25.8135 29.4081C25.8105 29.8821 26.1322 30.2961 26.592 30.4116L27.9615 30.7543C28.1317 31.5193 28.4025 32.2468 28.7587 32.9218L27.9375 34.0423C27.657 34.4248 27.675 34.9491 27.9795 35.3113L28.7347 36.2098C29.04 36.5728 29.553 36.6801 29.9775 36.4693L31.2442 35.8423C32.226 36.5833 33.3682 37.1218 34.6095 37.3986L34.9312 38.7501C35.0407 39.2113 35.4517 39.5376 35.9257 39.5398L37.0987 39.5458C37.5727 39.5481 37.9867 39.2263 38.1015 38.7666L38.4435 37.3971C39.6277 37.1323 40.722 36.6283 41.6722 35.9383L42.8985 36.5931C43.3163 36.8166 43.833 36.7251 44.1488 36.3718L44.931 35.4973C45.2467 35.1441 45.2805 34.6206 45.012 34.2298L44.211 33.0628C44.6048 32.3481 44.9017 31.5726 45.0847 30.7536L46.4528 30.4206C46.9132 30.3088 47.2373 29.8963 47.2373 29.4223L47.238 28.2493C47.238 27.7753 46.914 27.3628 46.4543 27.2503ZM36.5235 33.6898C33.843 33.6898 31.6702 31.5171 31.6702 28.8366C31.6702 26.1561 33.843 23.9833 36.5235 23.9833C39.204 23.9833 41.3767 26.1561 41.3767 28.8366C41.3767 31.5171 39.204 33.6898 36.5235 33.6898Z" fill="#33A78C"/>
</g>
<defs>
<clipPath id="clip0_564_38959">
<rect width="48" height="48" fill="white"/>
</clipPath>
</defs>
</svg>
